<svg xmlns="http://www.w3.org/2000/svg" viewBox="0 0 128 128" width="64" height="64">
  <path fill="#83CD29" d="M112.678 30.334L68.535 4.729c-2.781-1.584-6.424-1.584-9.227 0L14.82 30.334C11.951 31.985 10 35.088 10 38.407v51.142c0 3.319 1.951 6.449 4.82 8.073l44.146 25.123c2.781 1.584 6.424 1.584 9.227 0l44.146-25.123c2.869-1.624 4.82-4.754 4.82-8.073V38.407c0-3.319-1.951-6.422-4.82-8.073z"/>
  <path fill="#404137" d="M87.027 61.615c0-4.492-2.705-6.773-9.4-8.906-6.695-2.133-7.4-3.319-7.4-5.824 0-2.598 1.697-4.267 5.369-4.267 3.319 0 6.424 1.274 7.4 5.031.212.773.773 1.274 1.546 1.274h6.056c.424 0 .773-.212 1.06-.424.212-.424.424-.773.212-1.274-1.274-7.651-6.858-11.227-16.274-11.227-9.4 0-15.906 3.954-15.906 10.546 0 4.492 3.319 7.4 9.4 9.4 7.4 2.133 8.131 3.319 8.131 5.824 0 2.598-2.133 4.267-5.824 4.267-5.369 0-7.4-2.133-7.651-6.424-.212-.773-.773-1.274-1.546-1.274h-6.056c-.773 0-1.393.62-1.393 1.393 0 2.598 1.274 11.227 16.274 11.227 10.546 0 16.598-4.267 16.598-11.227z"/>
</svg>